<?xml version="1.0" encoding="UTF-8"?>
<svg id="Capa_1" data-name="Capa 1" xmlns="http://www.w3.org/2000/svg" viewBox="0 0 740 233">
  <defs>
    <style>
      .cls-1 {
        fill: #6d28d9;
      }

      .cls-2 {
        fill: #fff;
        stroke: #6d28d9;
        stroke-miterlimit: 10;
        stroke-width: 2px;
      }
    </style>
  </defs>
  <g>
    <path class="cls-1" d="M71.46,177.49c-38.47-38.47-38.47-100.83,0-139.3C109.93-.28,102.29,69.73,140.75,108.19s108.47,30.83,70,69.3c-38.47,38.47-100.83,38.47-139.3,0Z"/>
    <circle class="cls-2" cx="185.56" cy="63.16" r="36.5"/>
  </g>
  <g>
    <path class="cls-1" d="M341.61,77.7c1.31,0,2.35,.42,3.13,1.27,.77,.85,1.16,1.89,1.16,3.13v71.81c0,1.47-.46,2.65-1.39,3.53-.93,.89-2.08,1.33-3.47,1.33-.62,0-1.27-.13-1.97-.41-.69-.27-1.24-.64-1.62-1.1l-49.57-65.55,2.32-1.27v64.05c0,1.24-.41,2.26-1.22,3.07s-1.87,1.22-3.18,1.22-2.36-.41-3.13-1.22c-.77-.81-1.16-1.83-1.16-3.07V82.45c0-1.47,.46-2.62,1.39-3.47,.93-.85,2.01-1.27,3.24-1.27,.69,0,1.41,.14,2.14,.41,.73,.27,1.29,.71,1.68,1.33l48.76,64.51-1.39,1.85v-63.7c0-1.23,.41-2.28,1.22-3.13,.81-.85,1.83-1.27,3.07-1.27Z"/>
    <path class="cls-1" d="M439.24,118.24c0,5.95-.97,11.45-2.9,16.5-1.93,5.06-4.65,9.48-8.17,13.26-3.51,3.78-7.64,6.72-12.39,8.8-4.75,2.08-9.98,3.13-15.69,3.13s-10.83-1.04-15.58-3.13c-4.75-2.08-8.88-5.02-12.39-8.8-3.51-3.78-6.22-8.2-8.11-13.26-1.89-5.06-2.84-10.56-2.84-16.5s.94-11.45,2.84-16.5c1.89-5.06,4.59-9.48,8.11-13.26,3.51-3.78,7.64-6.72,12.39-8.8,4.75-2.08,9.94-3.13,15.58-3.13s10.94,1.04,15.69,3.13c4.75,2.08,8.88,5.02,12.39,8.8,3.51,3.78,6.23,8.21,8.17,13.26,1.93,5.06,2.9,10.56,2.9,16.5Zm-10.08,0c0-6.25-1.24-11.83-3.71-16.74-2.47-4.9-5.89-8.74-10.25-11.52-4.36-2.78-9.4-4.17-15.11-4.17s-10.64,1.39-15,4.17c-4.36,2.78-7.78,6.6-10.25,11.47-2.47,4.86-3.71,10.46-3.71,16.79s1.23,11.83,3.71,16.74c2.47,4.9,5.89,8.74,10.25,11.52,4.36,2.78,9.36,4.17,15,4.17s10.75-1.39,15.11-4.17c4.36-2.78,7.78-6.62,10.25-11.52,2.47-4.9,3.71-10.48,3.71-16.74Z"/>
    <path class="cls-1" d="M459.28,77.59c.69,0,1.45,.19,2.26,.58,.81,.39,1.45,.93,1.91,1.62l30.69,46.33-4.17-.12,31.04-46.21c1.08-1.46,2.39-2.2,3.94-2.2,1.23,.08,2.33,.56,3.3,1.45,.96,.89,1.45,1.99,1.45,3.3v71.69c0,1.31-.46,2.43-1.39,3.36s-2.08,1.39-3.47,1.39c-1.47,0-2.65-.46-3.53-1.39-.89-.93-1.33-2.04-1.33-3.36v-62.77l2.9,.46-27.33,41.58c-.46,.62-1.02,1.12-1.68,1.51-.66,.39-1.37,.54-2.14,.46-.69,.08-1.39-.08-2.08-.46-.69-.39-1.24-.89-1.62-1.51l-26.98-41.46,2.43-3.13v65.32c0,1.31-.42,2.43-1.27,3.36-.85,.93-1.93,1.39-3.24,1.39s-2.39-.46-3.24-1.39c-.85-.93-1.27-2.04-1.27-3.36V82.33c0-1.23,.46-2.33,1.39-3.3,.93-.96,2.08-1.45,3.47-1.45Z"/>
    <path class="cls-1" d="M577.99,89.75l-27.22,66.25c-.31,.93-.85,1.68-1.62,2.26-.77,.58-1.58,.87-2.43,.87-1.47,0-2.55-.41-3.24-1.22-.7-.81-1.08-1.76-1.16-2.84,0-.54,.08-1.12,.23-1.74l30-72.85c.46-1.08,1.1-1.89,1.91-2.43,.81-.54,1.72-.77,2.72-.7,1,0,1.91,.27,2.72,.81,.81,.54,1.37,1.31,1.68,2.32l29.88,72.15c.23,.62,.35,1.24,.35,1.85,0,1.39-.46,2.51-1.39,3.36-.93,.85-1.97,1.27-3.13,1.27-1,0-1.89-.29-2.66-.87-.77-.58-1.35-1.37-1.74-2.37l-27.56-66.25,2.66,.12Zm-21.43,47.37l3.94-9.03h34.4l1.74,9.03h-40.07Z"/>
    <path class="cls-1" d="M658.01,77.7c5.71,0,10.71,1.06,15,3.18,4.29,2.12,7.86,5.08,10.71,8.86,2.86,3.78,5,8.13,6.43,13.03,1.43,4.9,2.14,10.06,2.14,15.46,0,7.49-1.27,14.3-3.82,20.44-2.55,6.14-6.35,11.02-11.41,14.65-5.06,3.63-11.41,5.44-19.05,5.44h-28.84c-1.31,0-2.43-.46-3.36-1.39s-1.39-2.04-1.39-3.36V82.45c0-1.31,.46-2.43,1.39-3.36s2.04-1.39,3.36-1.39h28.84Zm-1.16,72.04c6.02,0,10.89-1.43,14.59-4.29,3.71-2.86,6.43-6.68,8.17-11.47,1.74-4.79,2.61-10.04,2.61-15.75,0-4.17-.48-8.15-1.45-11.93-.97-3.78-2.47-7.14-4.52-10.08-2.05-2.93-4.67-5.25-7.88-6.95-3.2-1.7-7.05-2.55-11.52-2.55h-23.63l.93-1.04v65.2l-.7-1.16h23.39Z"/>
  </g>
</svg>